<svg width="32" height="32" viewBox="0 0 32 32" fill="none" xmlns="http://www.w3.org/2000/svg">
<g clip-path="url(#clip0_949_1923)">
<path fill-rule="evenodd" clip-rule="evenodd" d="M15.9522 24.674C21.0048 20.3427 28.1022 16.1327 32.0002 14.6167C31.3988 14.2313 30.4602 13.678 29.4015 13.0767C24.3728 14.7367 18.5022 18.418 13.2568 22.5807C14.1475 23.254 15.0855 23.952 15.9522 24.674Z" fill="#E31837"/>
<path fill-rule="evenodd" clip-rule="evenodd" d="M13.6423 12.9085C12.8963 12.5472 12.0783 12.2105 11.453 11.9219C9.55229 12.8599 7.07362 14.2799 3.94629 16.5172C4.62029 16.8785 5.34162 17.3112 6.11162 17.7445C8.51762 15.9639 10.9476 14.2799 13.6423 12.9085Z" fill="#012169"/>
<path fill-rule="evenodd" clip-rule="evenodd" d="M18.1412 10.8392C17.2265 10.3339 14.0512 9.15457 11.8612 8.6499C11.2119 8.89057 10.2972 9.25124 9.67188 9.5159C10.4659 9.73257 13.4252 10.5266 15.9519 11.8019C16.6012 11.4886 17.5159 11.1039 18.1412 10.8392Z" fill="#E31837"/>
<path fill-rule="evenodd" clip-rule="evenodd" d="M7.386 10.5269C4.57133 11.8262 1.612 13.6062 0 14.6409C0.577333 14.9055 1.15467 15.1222 1.94867 15.5069C5.50933 13.1009 8.30067 11.6329 9.40733 11.1522C8.61333 10.8629 7.86733 10.6709 7.386 10.5269Z" fill="#012169"/>
<path fill-rule="evenodd" clip-rule="evenodd" d="M20.2585 10.0935C20.9078 9.87684 21.6545 9.68417 22.3038 9.49151C20.4272 8.69751 18.0691 7.85551 15.9518 7.32617C15.6151 7.42217 14.6045 7.6875 13.9065 7.9035C14.6285 8.12084 17.0098 8.67417 20.2585 10.0935ZM8.39648 19.1402C9.16648 19.5975 9.98448 20.2228 10.7785 20.7522C16.0478 16.6622 21.2445 13.5102 26.9471 11.7295C26.1532 11.3208 25.4551 10.9602 24.5651 10.5268C21.1485 11.3928 15.3018 13.7262 8.39648 19.1402Z" fill="#E31837"/>
</g>
<defs>
<clipPath id="clip0_949_1923">
<rect width="32" height="32" fill="white"/>
</clipPath>
</defs>
</svg>
