<svg width="44" height="18" viewBox="0 0 44 18" fill="none" xmlns="http://www.w3.org/2000/svg">
<path d="M31.9764 1.90686L29.4375 6.66385C28.4792 5.86058 27.309 5.26933 25.816 5.26933C22.2827 5.26933 20.8476 7.98809 20.8476 9.90318C20.8476 11.3247 21.7493 13.4221 24.8931 13.4221C26.2126 13.4221 28.0886 12.4745 28.6285 12.0433L26.1174 17.5622C24.9205 17.8087 24.5274 17.9616 23.5142 17.9939C17.8873 18.1673 15.6136 14.5991 15.6152 10.953C15.619 6.13293 19.7704 0.271013 26.6524 0.271013C27.0741 0.271013 27.5899 0.421555 28.0309 0.588376L28.4766 0" fill="#0060AF"/>
<path d="M42.4527 0.149414L43.1717 17.4391H37.8211L37.818 14.4738H34.1695L32.9687 17.4391H27.166L33.2326 5.09277L31.8646 5.08358L34.4638 0.149414H42.4527ZM37.7833 5.43867L35.7205 10.4676H37.8454" fill="#0060AF"/>
<path d="M12.2373 0.149877C14.8869 0.165198 16.3842 1.64993 16.3842 3.79467C16.3842 5.77182 14.8051 7.52201 13.0716 8.42698C14.8563 9.10422 15.0107 10.7667 15.0107 11.9429C15.0107 14.7844 12.2486 17.4395 8.65823 17.4395H0.828125L3.88246 5.26522L2.62785 5.25775L5.19255 0.149877C5.19255 0.149877 10.0826 0.134554 12.2373 0.149877ZM9.63769 7.15982C10.1858 7.15982 11.1535 7.01656 11.3955 5.92159C11.6606 4.73297 10.7524 4.70098 10.3168 4.70098L8.76009 4.69394L8.2172 7.15988L9.63769 7.15982ZM7.43683 10.2151L6.72009 13.0566H8.55303C9.27422 13.0566 10.257 12.6871 10.4978 11.7625C10.7357 10.8351 10.0487 10.2151 9.33006 10.2151" fill="#0060AF"/>
</svg>
