<svg width="32" height="22" viewBox="0 0 32 22" fill="none" xmlns="http://www.w3.org/2000/svg">
<path d="M9.84075 17.1727L9.7827 17.2284C8.87117 18.1477 7.81633 18.6334 6.72975 18.6334C4.46043 18.6334 2.81423 16.9483 2.81423 14.6241C2.81423 12.3034 4.46043 10.6157 6.72975 10.6157C7.81633 10.6157 8.87117 11.104 9.7827 12.0269L9.84075 12.0817L11.3001 10.3347L11.2611 10.288C10.0475 8.86868 8.59091 8.17832 6.80049 8.17832C5.00554 8.17832 3.36206 8.77711 2.17933 9.85529C0.891396 11.0241 0.213867 12.6724 0.213867 14.6241C0.213867 16.5757 0.891396 18.2276 2.17933 19.3964C3.36206 20.4809 5.00554 21.0752 6.80049 21.0752C8.59091 21.0752 10.0475 20.3839 11.2611 18.9637L11.3001 18.9206L9.84075 17.1727Z" fill="#004685"/>
<path d="M12.7734 20.8369H15.3511V8.37993H12.7734V20.8369Z" fill="#004685"/>
<path d="M25.45 18.129C24.7616 18.5437 24.1222 18.7529 23.5471 18.7529C22.7136 18.7529 22.3363 18.3166 22.3363 17.347V10.737H24.9639V8.39213H22.3363V4.5157L19.8103 5.85513V8.39213H17.6299V10.737H19.8103V17.7681C19.8103 19.683 20.9568 20.9936 22.6692 21.0278C23.831 21.0502 24.5312 20.7073 24.9557 20.4559L24.9829 20.4388L25.6024 18.0365L25.45 18.129Z" fill="#004685"/>
<path d="M27.584 20.8369H30.1653V8.37993H27.584V20.8369Z" fill="#004685"/>
<path d="M31.6685 6.19654C29.313 2.89467 25.402 0.925032 21.423 0.925032C17.4449 0.925032 13.533 2.89467 11.1821 6.19654L11.0605 6.36621H14.0264L14.0591 6.3312C16.0772 4.2682 18.7129 3.17835 21.423 3.17835C24.1331 3.17835 26.767 4.2682 28.7896 6.3312L28.8223 6.36621H31.7864L31.6685 6.19654Z" fill="#EE1C25"/>
</svg>
