<svg width="64" height="18" viewBox="0 0 64 18" fill="none" xmlns="http://www.w3.org/2000/svg">
<g clip-path="url(#clip0_949_1919)">
<path d="M0.429697 12.3691C0.429697 11.475 0.413701 10.7266 0.364258 10.0569H2.09548L2.17765 11.2059H2.22564C2.61754 10.5994 3.33592 9.88078 4.67524 9.88078C5.72081 9.88078 6.53661 10.456 6.87981 11.3167H6.91325C7.191 10.8863 7.51675 10.5668 7.89193 10.3445C8.33328 10.0406 8.8408 9.88078 9.493 9.88078C10.8163 9.88078 12.1542 10.7578 12.1542 13.2476V17.8237H10.1947V13.533C10.1947 12.242 9.73731 11.475 8.7739 11.475C8.08825 11.475 7.58146 11.9551 7.36987 12.5133C7.31099 12.7263 7.27805 12.9453 7.27171 13.1659V17.8244H5.31218V13.325C5.31218 12.2427 4.87155 11.4758 3.94014 11.4758C3.1905 11.4758 2.68444 12.051 2.50266 12.5921C2.42195 12.7838 2.38851 13.0082 2.38851 13.2298V17.8244H0.429697V12.3691ZM19.7895 15.9589C19.7895 16.6598 19.8222 17.3451 19.9029 17.8244H18.0902L17.9601 16.9637H17.9106C17.4206 17.5702 16.5873 17.9991 15.5607 17.9991C13.9596 17.9991 13.0616 16.8679 13.0616 15.6869C13.0616 13.7234 14.8401 12.7363 17.7812 12.7519V12.6248C17.7812 12.1135 17.5682 11.2684 16.1634 11.2684C15.3789 11.2684 14.5631 11.5084 14.0243 11.8422L13.6324 10.5661C14.2206 10.2145 15.2495 9.88007 16.5059 9.88007C19.0544 9.88007 19.7902 11.4608 19.7902 13.1496L19.7895 15.9589ZM17.8292 14.0294C16.4077 13.9968 15.0531 14.3 15.0531 15.4803C15.0531 16.2458 15.5607 16.5973 16.1969 16.5973C16.996 16.5973 17.5849 16.0853 17.7645 15.5278C17.8085 15.3884 17.8305 15.2433 17.8299 15.0975V14.0294H17.8292ZM21.1768 12.3691C21.1768 11.475 21.1601 10.7266 21.1128 10.0569H22.8746L22.972 11.2229H23.0214C23.3639 10.6158 24.2299 9.88078 25.5525 9.88078C26.9412 9.88078 28.3773 10.7578 28.3773 13.2156V17.8237H26.369V13.4386C26.369 12.3222 25.9437 11.4743 24.8501 11.4743C24.051 11.4743 23.4941 12.0332 23.2825 12.6241C23.217 12.7988 23.201 13.0388 23.201 13.2603V17.823H21.1761L21.1768 12.3691ZM37.0865 6.93652V15.6393C37.0865 16.4368 37.1199 17.2996 37.1519 17.8244H35.3567L35.2745 16.5973H35.2411C34.7685 17.458 33.8036 17.9998 32.6453 17.9998C30.7505 17.9998 29.2491 16.4212 29.2491 14.0301C29.2316 11.4296 30.8967 9.88149 32.8089 9.88149C33.9025 9.88149 34.6863 10.3282 35.0455 10.9048H35.0797V6.93723H37.0872V6.93652H37.0865ZM35.0789 13.2944C35.0789 13.1361 35.063 12.9443 35.0295 12.7838C34.8499 12.0197 34.2144 11.3969 33.299 11.3969C32.0091 11.3969 31.2893 12.514 31.2893 13.9648C31.2893 15.383 32.0084 16.4205 33.283 16.4205C34.0981 16.4205 34.8172 15.8772 35.0128 15.0322C35.0622 14.8575 35.0797 14.665 35.0797 14.4584V13.2944H35.0789ZM38.5072 17.8244V10.0569H40.5337V17.8244H38.5072ZM41.9529 12.5616C41.9529 11.5091 41.9377 10.7585 41.889 10.0576H43.6362L43.7002 11.5397H43.7663C44.1582 10.4397 45.0882 10.0576 45.9396 10.0576C46.1352 10.0576 46.2487 10.0249 46.4115 10.0576V11.7811C46.2188 11.7395 46.0221 11.718 45.8248 11.7172C44.8592 11.7172 44.2062 12.3237 44.0274 13.1993C43.9878 13.3997 43.9662 13.6031 43.9627 13.8072V17.8251H41.9529V12.5616ZM47.3437 17.8244V10.0569H49.3672V17.8244H47.3437Z" fill="#0D2B5B"/>
<path d="M61.9722 1.84209C60.9695 0.725036 59.9036 1.23066 59.0565 1.64183C58.7002 1.81369 56.1285 3.23752 56.1285 3.23752C54.7194 3.80493 53.6222 3.18568 53.1917 2.66444C53.1505 2.61501 53.1134 2.56254 53.0805 2.5075L52.9801 2.33777C52.8105 2.0513 52.6221 1.77589 52.4159 1.5133C52.2908 1.35413 52.1553 1.20302 52.0102 1.06093C51.046 0.110052 49.5053 -0.555352 46.9299 0.653312C45.7106 1.34357 41.7384 3.55993 41.7384 3.55993C40.2457 4.16 39.1041 3.42926 38.7333 2.8931C38.7166 2.87303 38.702 2.85138 38.6897 2.82848L38.641 2.74752L38.3894 2.34558C38.2759 2.16951 38.1541 1.99866 38.0244 1.83357C37.898 1.67541 37.7623 1.52461 37.618 1.38192C36.6604 0.436718 35.1276 -0.227266 32.5748 0.958673C31.0311 1.81937 27.4407 3.8241 27.4407 3.8241L27.4393 3.82552L24.8115 5.29197L26.1712 6.92246C26.7434 7.45506 27.8188 8.32854 29.4824 7.59212C29.4824 7.59212 34.0741 4.99513 34.0922 4.98732C38.0179 2.88316 39.9549 4.89358 40.8114 6.23362C40.8412 6.27551 40.8652 6.32096 40.8921 6.36144L40.8935 6.36357C40.9044 6.37991 40.911 6.39482 40.9204 6.41044L41.0171 6.56525C41.4345 7.18308 42.0925 7.58218 42.8771 7.56371C43.3097 7.55519 43.6034 7.41742 44.031 7.18521L48.4736 4.66846L48.483 4.6642C52.4581 2.53448 54.4278 4.67627 55.2691 6.01631C55.3345 6.13207 55.4087 6.24285 55.485 6.34582C55.9016 6.8976 56.476 7.25906 57.206 7.24131C57.6881 7.23208 58.2284 6.94944 58.3091 6.8976L63.6351 3.89512C63.6365 3.89654 63.0927 3.09336 61.9722 1.84209Z" fill="#FDD213"/>
</g>
<defs>
<clipPath id="clip0_949_1919">
<rect width="63.2892" height="18" fill="white" transform="translate(0.355469)"/>
</clipPath>
</defs>
</svg>
