<svg width="22" height="24" viewBox="0 0 22 24" fill="none" xmlns="http://www.w3.org/2000/svg">
<g clip-path="url(#clip0_949_1927)">
<path d="M18.0849 1.8682C16.9778 0.606054 14.9765 0.0649414 12.4163 0.0649414H4.98587C4.73256 0.0649508 4.48756 0.155342 4.29492 0.319864C4.10228 0.484385 3.97464 0.712245 3.93494 0.962478L0.841037 20.589C0.77954 20.976 1.07916 21.3265 1.47134 21.3265H6.05864L7.21071 14.0175L7.17496 14.2464C7.25704 13.7298 7.69879 13.3487 8.22191 13.3487H10.4018C14.6842 13.3487 18.0373 11.6089 19.0168 6.57617C19.0459 6.42733 19.0711 6.28245 19.0928 6.14092C18.9692 6.07543 18.9692 6.07543 19.0928 6.14092C19.3845 4.28076 19.0909 3.01456 18.0849 1.8682Z" fill="#27346A"/>
<path d="M8.96599 5.47082C9.0914 5.41109 9.22857 5.38014 9.36747 5.38023H15.1928C15.8826 5.38023 16.526 5.42513 17.114 5.51978C17.2785 5.54601 17.4422 5.57734 17.6048 5.61371C17.8352 5.66457 18.063 5.72682 18.2873 5.80023C18.5763 5.89678 18.8455 6.00923 19.0929 6.14092C19.3845 4.28004 19.0909 3.01456 18.0849 1.8682C16.9772 0.606054 14.9765 0.0649414 12.4163 0.0649414H4.98523C4.46203 0.0649414 4.01694 0.445922 3.93494 0.962478L0.841037 20.5883C0.77954 20.9759 1.07916 21.3259 1.4707 21.3259H6.05864L8.44883 6.16539C8.47233 6.01638 8.53168 5.8753 8.62177 5.75431C8.71186 5.63332 8.82999 5.53603 8.96599 5.47082Z" fill="#27346A"/>
<path d="M19.0164 6.57588C18.0369 11.6079 14.6838 13.3484 10.4014 13.3484H8.22084C7.69772 13.3484 7.25588 13.7295 7.1746 14.2461L5.74134 23.3339C5.68779 23.6726 5.94967 23.9795 6.29227 23.9795H10.1593C10.3808 23.9795 10.595 23.9004 10.7634 23.7564C10.9318 23.6125 11.0434 23.4132 11.078 23.1944L11.1156 22.9973L11.8445 18.3772L11.8914 18.1219C11.926 17.903 12.0376 17.7038 12.206 17.5598C12.3743 17.4159 12.5886 17.3368 12.8101 17.3367H13.3888C17.1348 17.3367 20.0679 15.8145 20.9251 11.4122C21.2829 9.57247 21.0977 8.03647 20.1513 6.95758C19.8642 6.6308 19.5077 6.36092 19.0924 6.14062C19.0699 6.28288 19.0455 6.42704 19.0164 6.57588Z" fill="#2790C3"/>
<path d="M18.0679 5.73235C17.9152 5.68774 17.761 5.64825 17.6057 5.61394C17.443 5.57816 17.2793 5.54705 17.1149 5.52064C16.5263 5.42535 15.8834 5.38037 15.1929 5.38037H9.36829C9.22928 5.38006 9.09202 5.41128 8.96681 5.47168C8.83065 5.5367 8.71239 5.63392 8.62226 5.75495C8.53214 5.87598 8.47286 6.01715 8.44957 6.16625L7.21154 14.0177L7.17578 14.2466C7.25722 13.73 7.69898 13.3489 8.22218 13.3489H10.4027C14.6851 13.3489 18.0381 11.6092 19.0176 6.5764C19.0468 6.42755 19.0713 6.28331 19.0938 6.14114C18.8457 6.01017 18.5772 5.89701 18.2881 5.80109C18.2151 5.7769 18.1418 5.75398 18.068 5.73235" fill="#1F264F"/>
</g>
<defs>
<clipPath id="clip0_949_1927">
<rect width="20.34" height="24" fill="white" transform="translate(0.830078)"/>
</clipPath>
</defs>
</svg>
