<?xml version="1.0" encoding="UTF-8"?> <svg xmlns="http://www.w3.org/2000/svg" xmlns:xlink="http://www.w3.org/1999/xlink" version="1.1" id="Clinisys_logo_bk_rgb" x="0px" y="0px" viewBox="0 0 739 349.3" style="enable-background:new 0 0 739 349.3;" xml:space="preserve"> <g id="Clinisys_logo_bk_rgb-2"> <path d="M456.3,170.9c-4.6-1.8-9.2-3.2-13.8-4.4c-4.6-1.1-8.5-2.5-11.8-4c-3.2-1.5-4.8-3.5-4.8-5.9c0-2.3,1-4.1,3-5.5 c2-1.3,4.5-2,7.6-2c6.8,0,11.6,3.1,14.6,9.3l20-10.9c-3.5-6.2-8.3-10.9-14.4-14.3c-6.1-3.3-12.8-5-20.2-5c-9.8,0-18.1,2.6-24.7,7.7 c-6.6,5.2-9.9,12.2-9.9,21.2c0,5.9,1.6,10.9,4.8,14.8c3.2,3.9,7.1,6.8,11.8,8.6c4.6,1.8,9.2,3.3,13.8,4.6c4.6,1.2,8.5,2.6,11.8,4.1 c3.2,1.5,4.8,3.5,4.8,5.9c0,5.2-4.2,7.8-12.6,7.8c-9.2,0-15.2-3.9-17.8-11.8L398,202.7c6.8,14.4,19.5,21.7,38.2,21.7 c10.4,0,19.1-2.5,26.1-7.6s10.5-12.2,10.5-21.6c0-6.2-1.6-11.4-4.8-15.5C464.8,175.6,460.9,172.7,456.3,170.9L456.3,170.9z"></path> <path d="M644.8,179.8c-3.2-4.1-7.1-7.1-11.8-8.8c-4.6-1.8-9.2-3.2-13.8-4.4c-4.6-1.1-8.5-2.5-11.8-4c-3.2-1.5-4.8-3.5-4.8-5.9 c0-2.3,1-4.1,3-5.5c2-1.3,4.5-2,7.6-2c6.8,0,11.7,3.1,14.6,9.3l20-10.9c-3.5-6.2-8.3-10.9-14.4-14.3c-6.1-3.3-12.8-5-20.2-5 c-9.8,0-18.1,2.6-24.7,7.7c-6.6,5.2-9.9,12.2-9.9,21.2c0,5.9,1.6,10.9,4.8,14.8c3.2,3.9,7.1,6.8,11.8,8.6c4.6,1.8,9.2,3.3,13.8,4.6 c4.6,1.2,8.5,2.6,11.8,4.1c3.2,1.5,4.8,3.5,4.8,5.9c0,5.2-4.2,7.8-12.6,7.8c-9.2,0-15.2-3.9-17.8-11.8l-20.4,11.5 c6.8,14.4,19.5,21.7,38.2,21.7c10.4,0,19.2-2.5,26.1-7.6s10.5-12.2,10.5-21.6C649.7,189,648,183.9,644.8,179.8L644.8,179.8z"></path> <polygon points="229.3,221.8 252.8,221.8 252.8,139 229.3,125.4 "></polygon> <path d="M241.1,92.2c-4,0-7.4,1.4-10.3,4.4c-2.9,2.9-4.3,6.3-4.3,10.2s1.4,7.2,4.3,10.1c2.9,2.8,6.3,4.3,10.3,4.3s7.2-1.4,10.1-4.3 c2.9-2.8,4.3-6.2,4.3-10.1s-1.4-7.3-4.3-10.2C248.4,93.7,245,92.2,241.1,92.2z"></path> <polygon points="364.2,221.8 387.7,221.8 387.7,125.4 364.2,139 "></polygon> <path d="M375.9,92.2c-3.9,0-7.2,1.4-10.1,4.4c-2.9,2.9-4.3,6.3-4.3,10.2s1.4,7.2,4.3,10.1c2.9,2.8,6.2,4.3,10.1,4.3 s7.4-1.4,10.3-4.3c2.9-2.8,4.3-6.2,4.3-10.1s-1.4-7.3-4.3-10.2C383.3,93.7,379.9,92.2,375.9,92.2z"></path> <path d="M308.5,128.2c-22.9,0-41.5,18.6-41.5,41.5l0,52.1h23.5l0-52.1c0-9.9,8.1-18,18-18s18,8.1,18,18v52.1h23.5l0-52.1 C350,146.8,331.4,128.2,308.5,128.2L308.5,128.2z"></path> <path d="M541.8,130.8l0,52.1c0,9.9-8.1,18-18,18s-18-8.1-18-18v-52.1h-23.5l0,52.1c0,22.9,18.6,41.5,41.5,41.5 c6.5,0,12.5-1.5,18-4.1v0.8c0,9.9-7.8,17.6-20.8,18l-25.4,0.1l-13.7,20.6h41.9c22.9,0,41.5-15.8,41.5-38.7l0-52.1h0l0-38.1 L541.8,130.8L541.8,130.8z"></path> <polygon points="190,221.8 213.5,221.8 213.5,89.6 190,103.3 "></polygon> <path d="M120.1,158.7c2.4-2.4,5.2-4.2,8.2-5.5c3-1.2,6.2-1.8,9.4-1.8s6.4,0.6,9.4,1.8s5.8,3,8.2,5.5c1.6,1.6,2.9,3.3,3.9,5.2 l20.1-11.6c-2.1-3.6-4.6-6.9-7.6-10c-18.8-18.8-49.2-18.8-67.9,0c-18.8,18.8-18.8,49.2,0,67.9c18.8,18.8,49.2,18.8,67.9,0 c3-3,5.5-6.4,7.6-10l-20.1-11.6c-1.1,1.8-2.4,3.6-3.9,5.2c-2.4,2.4-5.2,4.2-8.2,5.5c-3,1.2-6.2,1.8-9.4,1.8s-6.4-0.6-9.4-1.8 c-3-1.2-5.8-3-8.2-5.5c-2.4-2.4-4.2-5.2-5.5-8.2s-1.8-6.2-1.8-9.4s0.6-6.4,1.8-9.4S117.7,161.2,120.1,158.7L120.1,158.7z"></path> </g> <g> <polygon points="627.8,99.9 634.2,99.9 634.2,117.8 637.9,117.8 637.9,99.9 644.3,99.9 644.3,96.8 627.8,96.8 "></polygon> <polygon points="669.1,96.8 666.2,96.8 665.4,96.8 658.9,112.2 652.4,96.8 651.6,96.8 648.6,96.8 647.9,96.8 647.9,117.8 651.6,117.8 651.6,103.5 657.9,117.8 659.8,117.8 666.2,103.5 666.2,117.8 669.8,117.8 669.8,96.8 "></polygon> </g> <g id="Clinisys_logo_bk_rgb-2_00000171718970137825515910000007586725637883682746_"> <path d="M456.3,532.9c-4.6-1.8-9.2-3.2-13.8-4.4c-4.6-1.1-8.5-2.5-11.8-4c-3.2-1.5-4.8-3.5-4.8-5.9c0-2.3,1-4.1,3-5.5 c2-1.3,4.5-2,7.6-2c6.8,0,11.6,3.1,14.6,9.3l20-10.9c-3.5-6.2-8.3-10.9-14.4-14.3c-6.1-3.3-12.8-5-20.2-5c-9.8,0-18.1,2.6-24.7,7.7 c-6.6,5.2-9.9,12.2-9.9,21.2c0,5.9,1.6,10.9,4.8,14.8c3.2,4,7.1,6.8,11.8,8.7c4.6,1.8,9.2,3.3,13.8,4.5c4.6,1.2,8.5,2.6,11.8,4.1 c3.2,1.5,4.8,3.5,4.8,5.9c0,5.2-4.2,7.8-12.6,7.8c-9.2,0-15.2-3.9-17.8-11.8L398,564.6c6.8,14.5,19.5,21.7,38.2,21.7 c10.4,0,19.1-2.5,26.1-7.6c7-5,10.5-12.2,10.5-21.6c0-6.2-1.6-11.4-4.8-15.5C464.8,537.6,460.9,534.6,456.3,532.9L456.3,532.9z"></path> <path d="M644.8,541.7c-3.2-4.1-7.1-7.1-11.8-8.8c-4.6-1.8-9.2-3.2-13.8-4.4c-4.6-1.1-8.5-2.5-11.8-4c-3.2-1.5-4.8-3.5-4.8-5.9 c0-2.3,1-4.1,3-5.5c2-1.3,4.5-2,7.6-2c6.8,0,11.7,3.1,14.6,9.3l20-10.9c-3.5-6.2-8.3-10.9-14.4-14.3c-6.1-3.3-12.8-5-20.2-5 c-9.8,0-18.1,2.6-24.7,7.7c-6.6,5.2-9.9,12.2-9.9,21.2c0,5.9,1.6,10.9,4.8,14.8c3.2,4,7.1,6.8,11.8,8.7c4.6,1.8,9.2,3.3,13.8,4.5 c4.6,1.2,8.5,2.6,11.8,4.1c3.2,1.5,4.8,3.5,4.8,5.9c0,5.2-4.2,7.8-12.6,7.8c-9.2,0-15.2-3.9-17.8-11.8l-20.4,11.5 c6.8,14.5,19.5,21.7,38.2,21.7c10.4,0,19.2-2.5,26.1-7.6c7-5,10.5-12.2,10.5-21.6C649.7,551,648,545.8,644.8,541.7L644.8,541.7z"></path> <polygon points="229.3,583.8 252.8,583.8 252.8,501 229.3,487.3 "></polygon> <path d="M241.1,454.2c-4,0-7.4,1.5-10.3,4.4c-2.9,2.9-4.3,6.3-4.3,10.2c0,3.9,1.4,7.2,4.3,10.1c2.9,2.9,6.3,4.3,10.3,4.3 s7.2-1.4,10.1-4.3c2.9-2.8,4.3-6.2,4.3-10.1c0-3.9-1.4-7.3-4.3-10.2C248.4,455.6,245,454.2,241.1,454.2z"></path> <polygon points="364.2,583.8 387.7,583.8 387.7,487.3 364.2,501 "></polygon> <path d="M375.9,454.2c-3.9,0-7.2,1.5-10.1,4.4c-2.9,2.9-4.3,6.3-4.3,10.2c0,3.9,1.4,7.2,4.3,10.1c2.9,2.9,6.2,4.3,10.1,4.3 s7.4-1.4,10.3-4.3c2.9-2.8,4.3-6.2,4.3-10.1c0-3.9-1.4-7.3-4.3-10.2C383.3,455.6,379.9,454.2,375.9,454.2z"></path> <path d="M308.5,490.2c-22.9,0-41.5,18.6-41.5,41.5l0,52.1h23.5l0-52.1c0-9.9,8.1-18,18-18s18,8.1,18,18v52.1h23.5l0-52.1 C350,508.8,331.4,490.2,308.5,490.2L308.5,490.2z"></path> <path d="M541.8,492.7l0,52.1c0,9.9-8.1,18-18,18s-18-8.1-18-18v-52.1h-23.5l0,52.1c0,22.9,18.6,41.5,41.5,41.5 c6.5,0,12.5-1.5,18-4.2v0.8c0,9.9-7.8,17.6-20.8,18l-25.4,0.1l-13.7,20.6h41.9c22.9,0,41.5-15.8,41.5-38.7l0-52.1h0l0-38.1 L541.8,492.7L541.8,492.7z"></path> <polygon points="190,583.8 213.5,583.8 213.5,451.6 190,465.2 "></polygon> <path d="M120.1,520.7c2.4-2.4,5.2-4.2,8.2-5.5c3-1.2,6.2-1.8,9.4-1.8s6.4,0.6,9.4,1.8s5.8,3,8.2,5.5c1.6,1.6,2.9,3.3,3.9,5.2 l20.1-11.6c-2.1-3.6-4.6-6.9-7.6-10c-18.8-18.8-49.2-18.8-67.9,0c-18.8,18.8-18.8,49.2,0,67.9c18.8,18.8,49.2,18.8,67.9,0 c3-3,5.5-6.4,7.6-10l-20.1-11.6c-1.1,1.8-2.4,3.6-3.9,5.2c-2.4,2.4-5.2,4.2-8.2,5.5c-3,1.2-6.2,1.8-9.4,1.8s-6.4-0.6-9.4-1.8 c-3-1.2-5.8-3-8.2-5.5c-2.4-2.4-4.2-5.2-5.5-8.2s-1.8-6.2-1.8-9.4s0.6-6.4,1.8-9.4S117.7,523.1,120.1,520.7L120.1,520.7z"></path> </g> <g> <path d="M654.8,468.1c0.5-0.7,0.7-1.5,0.7-2.4c0-0.9-0.2-1.7-0.7-2.3c-0.4-0.6-1-1.1-1.6-1.4c-0.6-0.3-1.2-0.4-1.7-0.4H645v12.9 h2.8v-4.4h2.8l2.3,4.4h3.1l-2.6-5C653.9,469.1,654.4,468.7,654.8,468.1z M647.8,463.6h2.7c0.3,0,0.7,0.1,1.2,0.4 c0.4,0.3,0.7,0.8,0.7,1.6c0,0.8-0.2,1.3-0.7,1.7c-0.4,0.4-0.9,0.6-1.3,0.6h-2.6V463.6z"></path> <path d="M662.8,462.7c-0.7-1.7-1.7-3.2-3-4.5c-1.3-1.3-2.8-2.3-4.5-3c-1.7-0.7-3.5-1.1-5.4-1.1c-1.9,0-3.8,0.4-5.4,1.1 c-1.7,0.7-3.2,1.7-4.5,3c-1.3,1.3-2.3,2.8-3,4.5c-0.7,1.7-1.1,3.5-1.1,5.4c0,1.9,0.4,3.8,1.1,5.4c0.7,1.7,1.7,3.2,3,4.5 c1.3,1.3,2.8,2.3,4.5,3c1.7,0.7,3.5,1.1,5.4,1.1c1.9,0,3.8-0.4,5.4-1.1c1.7-0.7,3.2-1.7,4.5-3c1.3-1.3,2.3-2.8,3-4.5 c0.7-1.7,1.1-3.5,1.1-5.4C663.9,466.2,663.5,464.4,662.8,462.7z M659.1,473.5c-1,1.6-2.2,2.9-3.9,3.9c-1.6,1-3.4,1.4-5.4,1.4 s-3.7-0.5-5.4-1.4c-1.6-1-2.9-2.2-3.8-3.9c-1-1.6-1.4-3.4-1.4-5.4s0.5-3.7,1.4-5.4c1-1.6,2.2-2.9,3.8-3.8c1.6-1,3.4-1.4,5.4-1.4 s3.7,0.5,5.4,1.4c1.6,1,2.9,2.2,3.9,3.8c1,1.6,1.4,3.4,1.4,5.4S660,471.9,659.1,473.5z"></path> </g> </svg> 