<?xml version="1.0" encoding="utf-8"?>
<!-- Generator: Adobe Illustrator 13.0.0, SVG Export Plug-In . SVG Version: 6.00 Build 14948)  -->
<!DOCTYPE svg PUBLIC "-//W3C//DTD SVG 1.1//EN" "http://www.w3.org/Graphics/SVG/1.1/DTD/svg11.dtd">
<svg version="1.1" id="Layer_1" xmlns="http://www.w3.org/2000/svg" xmlns:xlink="http://www.w3.org/1999/xlink" x="0px" y="0px"
	 width="198.756px" height="62.756px" viewBox="0 0 198.756 62.756" enable-background="new 0 0 198.756 62.756"
	 xml:space="preserve">
<g>
	<polygon fill-rule="evenodd" clip-rule="evenodd" fill="none" points="0,0 198.756,0 198.756,62.756 0,62.756 0,0 	"/>
	<path fill-rule="evenodd" clip-rule="evenodd" fill="#0D4BA0" d="M11.754,13.176v19.695h4.302v-13.14
		c0-0.596-0.053-1.986-0.212-4.2c0.239,1.391,0.556,2.54,0.77,3.462l3.208,13.877h4.409l3.289-14.105
		c0.229-0.984,0.557-2.043,0.796-3.235c-0.133,1.419-0.213,2.782-0.213,4.115v13.225h4.621V13.176h-7.382l-2.519,11.72
		c-0.167,0.778-0.424,1.958-0.558,3.604c-0.079-1.447-0.255-2.615-0.504-3.491l-3.373-11.834H11.754L11.754,13.176z"/>
	<path fill-rule="evenodd" clip-rule="evenodd" fill="#0D4BA0" d="M47.517,13.243c-1.427-0.494-2.744-0.741-3.951-0.741
		c-5.075,0-8.093,2.881-8.093,7.462c0,4.417,3.127,7.412,7.709,7.412c1.728,0,3.237-0.22,4.472-0.663l-0.109-3.704
		c-0.906,0.549-1.866,0.823-2.936,0.823c-2.552,0-4.143-1.563-4.143-3.896c0-2.387,1.509-3.923,3.923-3.923
		c0.905,0,1.838,0.247,2.798,0.768L47.517,13.243L47.517,13.243z"/>
	<polygon fill-rule="evenodd" clip-rule="evenodd" fill="#0D4BA0" points="51.156,13.176 51.156,32.871 56.406,32.871 
		56.406,23.733 62.592,32.871 69.12,32.871 61.145,22.229 68.381,13.176 62.507,13.176 56.406,21.69 56.406,13.176 51.156,13.176 	
		"/>
	<polygon fill-rule="evenodd" clip-rule="evenodd" fill="#0D4BA0" points="71.041,13.176 71.041,32.871 85.032,32.871 
		85.032,29.068 76.292,29.068 76.292,24.584 84.237,24.584 84.237,20.839 76.292,20.839 76.292,16.866 84.72,16.866 84.72,13.176 
		71.041,13.176 	"/>
	<path fill-rule="evenodd" clip-rule="evenodd" fill="#0D4BA0" d="M103.223,13.403c-1.702-0.482-3.49-0.709-5.392-0.709
		c-5.335,0-8.201,2.242-8.201,6.158c0,2.923,1.674,4.484,5.222,5.761c2.412,0.88,3.944,1.135,3.944,2.611
		c0,1.306-1.249,2.157-3.349,2.157c-1.476,0-3.235-0.397-5.165-1.277l-0.454,4.399c2.043,0.572,4.03,0.828,5.931,0.828
		c5.534,0,8.429-2.389,8.429-6.674c0-1.845-0.625-3.178-2.016-4.257c-1.276-0.965-3.121-1.476-5.363-2.213
		c-1.22-0.397-1.816-1.021-1.816-1.845c0-1.164,1.192-1.901,3.376-1.901c1.391,0,2.866,0.34,4.456,1.021L103.223,13.403
		L103.223,13.403z"/>
	<path fill-rule="evenodd" clip-rule="evenodd" fill="#0D4BA0" d="M121.041,13.403c-1.702-0.482-3.49-0.709-5.392-0.709
		c-5.335,0-8.202,2.242-8.202,6.158c0,2.923,1.675,4.484,5.223,5.761c2.412,0.88,3.944,1.135,3.944,2.611
		c0,1.306-1.249,2.157-3.349,2.157c-1.476,0-3.235-0.397-5.165-1.277l-0.454,4.399c2.043,0.572,4.029,0.828,5.931,0.828
		c5.534,0,8.429-2.389,8.429-6.674c0-1.845-0.624-3.178-2.015-4.257c-1.277-0.965-3.122-1.476-5.363-2.213
		c-1.221-0.397-1.816-1.021-1.816-1.845c0-1.164,1.191-1.901,3.377-1.901c1.391,0,2.866,0.34,4.455,1.021L121.041,13.403
		L121.041,13.403z"/>
	<path fill-rule="evenodd" clip-rule="evenodd" fill="#0D4BA0" d="M134.947,12.694c-6.102,0-9.791,3.831-9.791,10.33
		c0,6.499,3.661,10.306,9.791,10.306c6.102,0,9.762-3.808,9.762-10.306C144.709,16.525,141.049,12.694,134.947,12.694
		L134.947,12.694z M134.947,16.525c2.61,0,4.483,2.412,4.483,6.442c0,4.058-1.845,6.47-4.483,6.47c-2.64,0-4.513-2.412-4.513-6.47
		S132.336,16.525,134.947,16.525L134.947,16.525z"/>
	<path fill-rule="evenodd" clip-rule="evenodd" fill="#0D4BA0" d="M147.803,13.176v19.695h4.739V22.485
		c0-1.448-0.17-3.406-0.539-5.847c0.369,1.504,0.823,2.838,1.391,4.001l5.931,12.231h6.527V13.176h-4.739v11.153
		c0,1.391,0.171,3.037,0.482,4.91c-0.624-2.043-1.135-3.462-1.532-4.257l-5.704-11.806H147.803L147.803,13.176z"/>
	<polygon fill-rule="evenodd" clip-rule="evenodd" fill="#F15A22" points="36.76,29.521 47.499,29.521 47.499,33.042 36.76,33.042 
		36.76,29.521 	"/>
	<polygon fill-rule="evenodd" clip-rule="evenodd" fill="#939598" points="53.12,43.525 51.02,53.373 56.057,53.373 56.242,52.551 
		52.141,52.551 52.964,48.648 56.667,48.648 56.837,47.783 53.148,47.783 53.886,44.334 57.774,44.334 57.958,43.525 53.12,43.525 	
		"/>
	<path fill-rule="evenodd" clip-rule="evenodd" fill="#939598" d="M68.186,48.889c0.057-0.227,0.085-0.469,0.085-0.738
		c0-1.275-0.738-2.014-1.944-2.014c-1.107,0-1.859,0.482-2.469,1.561c-0.227-1.051-0.809-1.561-1.802-1.561
		c-0.937,0-1.66,0.396-2.327,1.234l0.241-1.092h-0.809l-1.49,7.094h0.88l0.795-3.732c0.383-1.801,1.348-2.738,2.469-2.738
		c0.781,0,1.249,0.496,1.249,1.334c0,0.213-0.028,0.469-0.099,0.766l-0.937,4.371h0.866l0.809-3.773
		c0.383-1.789,1.22-2.684,2.37-2.684c0.794,0,1.277,0.482,1.277,1.377c0,0.213-0.028,0.426-0.071,0.652l-0.951,4.428h0.908
		L68.186,48.889L68.186,48.889z"/>
	<path fill-rule="evenodd" clip-rule="evenodd" fill="#939598" d="M75.221,48.945c0,2.229-1.22,3.775-2.625,3.775
		c-1.064,0-1.816-0.852-1.816-2.172c0-0.852,0.255-1.717,0.639-2.313c0.567-0.879,1.305-1.334,2.072-1.334
		C74.554,46.902,75.221,47.684,75.221,48.945L75.221,48.945z M70.368,51.939c0.369,1.051,1.164,1.578,2.355,1.578
		c0.837,0,1.604-0.357,2.228-1.053c0.738-0.822,1.234-2.129,1.234-3.391c0-1.889-0.937-2.938-2.498-2.938
		c-0.937,0-1.774,0.453-2.44,1.348l0.241-1.234h-0.823l-2.145,10.09h0.91L70.368,51.939L70.368,51.939z"/>
	<path fill-rule="evenodd" clip-rule="evenodd" fill="#939598" d="M80.922,46.137c-1.064,0-2.1,0.482-2.71,1.205
		c-0.78,0.924-1.164,1.973-1.164,3.18c0,1.83,1.149,3.023,2.88,3.023c1.391,0,2.597-0.754,3.32-2.115
		c0.354-0.668,0.554-1.447,0.554-2.271C83.803,47.271,82.682,46.137,80.922,46.137L80.922,46.137z M82.838,49.172
		c0,1.094-0.397,2.102-1.064,2.811c-0.468,0.496-1.079,0.766-1.731,0.766c-1.22,0-2.029-0.922-2.029-2.34
		c0-1.137,0.44-2.158,1.178-2.838c0.482-0.441,1.05-0.682,1.646-0.682C82.058,46.889,82.838,47.754,82.838,49.172L82.838,49.172z"/>
	<polygon fill-rule="evenodd" clip-rule="evenodd" fill="#939598" points="84.878,46.279 85.573,53.475 86.666,53.475 
		90.043,47.072 90.738,53.475 91.774,53.475 95.62,46.279 94.626,46.279 91.434,52.578 90.738,46.279 89.688,46.279 86.297,52.564 
		85.744,46.279 84.878,46.279 	"/>
	<path fill-rule="evenodd" clip-rule="evenodd" fill="#939598" d="M100.568,49.287h-4.171c0.341-1.52,1.433-2.455,2.54-2.455
		c1.022,0,1.675,0.709,1.675,1.916C100.611,48.918,100.597,49.102,100.568,49.287L100.568,49.287z M101.32,50.039
		c0.114-0.469,0.171-0.881,0.171-1.25c0-1.645-1.008-2.666-2.54-2.666c-1.079,0-1.987,0.453-2.682,1.375
		c-0.61,0.824-0.951,1.846-0.951,2.91c0,2,1.121,3.152,2.98,3.152c0.624,0,1.276-0.129,1.972-0.414l0.043-0.881
		c-0.639,0.326-1.263,0.482-1.901,0.482c-1.376,0-2.186-0.795-2.186-2.113c0-0.17,0.029-0.369,0.057-0.596H101.32L101.32,50.039z"/>
	<path fill-rule="evenodd" clip-rule="evenodd" fill="#939598" d="M107.008,46.221c-0.241-0.057-0.469-0.098-0.695-0.098
		c-0.795,0-1.462,0.396-2.129,1.219l0.241-1.063h-0.822l-1.49,7.094h0.937l0.78-3.689c0.383-1.773,1.107-2.668,2.355-2.668
		c0.199,0,0.397,0.029,0.624,0.1L107.008,46.221L107.008,46.221z"/>
	<path fill-rule="evenodd" clip-rule="evenodd" fill="#939598" d="M108.665,43.029l-0.241,1.148h1.035l0.241-1.148H108.665
		L108.665,43.029z M108.069,46.279l-1.505,7.094h0.866l1.518-7.094H108.069L108.069,46.279z"/>
	<path fill-rule="evenodd" clip-rule="evenodd" fill="#939598" d="M115.927,49.443c0.1-0.441,0.142-0.852,0.142-1.193
		c0-1.277-0.851-2.113-2.156-2.113c-0.951,0-1.773,0.469-2.398,1.377l0.27-1.264h-0.837l-1.519,7.123h0.908l0.781-3.646
		c0.383-1.789,1.376-2.781,2.539-2.781c0.951,0,1.49,0.539,1.49,1.475c0,0.285-0.028,0.611-0.1,0.951l-0.851,4.002h0.907
		L115.927,49.443L115.927,49.443z"/>
	<path fill-rule="evenodd" clip-rule="evenodd" fill="#939598" d="M123.231,46.307l-0.284,1.434
		c-0.368-1.051-1.148-1.576-2.341-1.576c-1.064,0-2.029,0.582-2.668,1.646c-0.524,0.865-0.809,1.859-0.809,2.881
		c0,1.787,0.965,2.854,2.497,2.854c0.951,0,1.774-0.455,2.441-1.35c-0.369,2.387-1.206,3.479-2.924,3.479
		c-0.737,0-1.476-0.213-2.213-0.625l-0.314,0.838c0.867,0.369,1.69,0.568,2.499,0.568c1.916,0,3.094-0.98,3.491-2.895l1.504-7.254
		H123.231L123.231,46.307z M122.536,49.115c0,0.867-0.256,1.732-0.639,2.328c-0.567,0.879-1.291,1.334-2.086,1.334
		c-1.05,0-1.73-0.781-1.73-2.043c0-1.291,0.454-2.455,1.148-3.137c0.427-0.426,0.951-0.652,1.477-0.652
		C121.784,46.945,122.536,47.797,122.536,49.115L122.536,49.115z"/>
	<polygon fill-rule="evenodd" clip-rule="evenodd" fill="#939598" points="130.734,43.525 128.648,53.373 129.586,53.373 
		130.593,48.619 135.687,48.619 134.68,53.373 135.63,53.373 137.716,43.525 136.779,43.525 135.871,47.797 130.763,47.797 
		131.671,43.525 130.734,43.525 	"/>
	<path fill-rule="evenodd" clip-rule="evenodd" fill="#939598" d="M143.219,49.287h-4.172c0.341-1.52,1.434-2.455,2.54-2.455
		c1.021,0,1.675,0.709,1.675,1.916C143.262,48.918,143.247,49.102,143.219,49.287L143.219,49.287z M143.971,50.039
		c0.113-0.469,0.17-0.881,0.17-1.25c0-1.645-1.007-2.666-2.54-2.666c-1.078,0-1.986,0.453-2.682,1.375
		c-0.61,0.824-0.95,1.846-0.95,2.91c0,2,1.121,3.152,2.979,3.152c0.624,0,1.277-0.129,1.973-0.414l0.042-0.881
		c-0.639,0.326-1.263,0.482-1.901,0.482c-1.376,0-2.185-0.795-2.185-2.113c0-0.17,0.028-0.369,0.057-0.596H143.971L143.971,50.039z"
		/>
	<path fill-rule="evenodd" clip-rule="evenodd" fill="#939598" d="M150.438,49.271c0.07-0.369,0.113-0.709,0.113-1.035
		c0-1.32-0.865-2.129-2.327-2.129c-0.539,0-1.234,0.129-2.101,0.369l-0.099,0.922c0.88-0.326,1.589-0.51,2.128-0.51
		c0.993,0,1.547,0.525,1.547,1.461c0,0.156-0.028,0.398-0.071,0.695c-0.496-0.043-0.907-0.07-1.22-0.07
		c-2.512,0-3.846,0.951-3.846,2.553c0,1.15,0.866,1.961,2.171,1.961c0.908,0,1.646-0.398,2.327-1.236l-0.17,1.121h0.78
		c0.057-0.496,0.185-1.135,0.341-1.916L150.438,49.271L150.438,49.271z M149.516,49.713c-0.241,1.971-1.248,3.021-2.625,3.021
		c-0.837,0-1.376-0.496-1.376-1.248c0-1.291,1.05-1.789,3.264-1.789C149.02,49.697,149.261,49.697,149.516,49.713L149.516,49.713z"
		/>
	<polygon fill-rule="evenodd" clip-rule="evenodd" fill="#939598" points="153.783,42.803 151.542,53.373 152.45,53.373 
		154.664,42.803 153.783,42.803 	"/>
	<path fill-rule="evenodd" clip-rule="evenodd" fill="#939598" d="M157.456,44.178l-0.965,0.342l-0.369,1.76h-1.433l-0.156,0.752
		h1.433l-0.865,4.072c-0.057,0.297-0.113,0.566-0.113,0.822c0,0.965,0.581,1.521,1.574,1.521c0.228,0,0.482-0.043,0.767-0.131
		l0.171-0.795c-0.341,0.1-0.597,0.143-0.767,0.143c-0.511,0-0.823-0.342-0.823-0.908c0-0.186,0.028-0.439,0.1-0.768l0.837-3.957
		h1.816l0.17-0.752h-1.816L157.456,44.178L157.456,44.178z"/>
	<path fill-rule="evenodd" clip-rule="evenodd" fill="#939598" d="M161.085,42.803l-2.241,10.57h0.907l0.781-3.646
		c0.383-1.789,1.376-2.781,2.539-2.781c0.951,0,1.49,0.539,1.49,1.475c0,0.285-0.028,0.611-0.099,0.951l-0.852,4.002h0.908
		l0.822-3.93c0.1-0.441,0.143-0.852,0.143-1.193c0-1.277-0.852-2.113-2.157-2.113c-0.95,0-1.773,0.469-2.397,1.377l1.035-4.711
		H161.085L161.085,42.803z"/>
	<path fill-rule="evenodd" clip-rule="evenodd" fill="#939598" d="M172.59,46.477c-0.553-0.213-1.135-0.297-1.759-0.297
		c-1.362,0-2.356,0.326-3.137,1.148c-0.724,0.752-1.148,1.816-1.148,2.938c0,1.93,1.163,3.238,2.923,3.238
		c0.581,0,1.191-0.072,1.802-0.23l0.1-0.922c-0.682,0.213-1.234,0.326-1.675,0.326c-1.348,0-2.199-0.951-2.199-2.426
		c0-1.889,1.319-3.279,3.122-3.279c0.482,0,1.063,0.115,1.73,0.342L172.59,46.477L172.59,46.477z"/>
	<path fill-rule="evenodd" clip-rule="evenodd" fill="#939598" d="M178.178,49.271c0.071-0.369,0.113-0.709,0.113-1.035
		c0-1.32-0.865-2.129-2.327-2.129c-0.539,0-1.234,0.129-2.1,0.369l-0.1,0.922c0.88-0.326,1.589-0.51,2.129-0.51
		c0.993,0,1.546,0.525,1.546,1.461c0,0.156-0.028,0.398-0.07,0.695c-0.497-0.043-0.908-0.07-1.221-0.07
		c-2.512,0-3.846,0.951-3.846,2.553c0,1.15,0.866,1.961,2.172,1.961c0.907,0,1.646-0.398,2.327-1.236l-0.171,1.121h0.78
		c0.057-0.496,0.185-1.135,0.341-1.916L178.178,49.271L178.178,49.271z M177.256,49.713c-0.241,1.971-1.249,3.021-2.626,3.021
		c-0.837,0-1.376-0.496-1.376-1.248c0-1.291,1.05-1.789,3.264-1.789C176.759,49.697,177,49.697,177.256,49.713L177.256,49.713z"/>
	<path fill-rule="evenodd" clip-rule="evenodd" fill="#939598" d="M184.162,46.221c-0.241-0.057-0.468-0.098-0.694-0.098
		c-0.795,0-1.462,0.396-2.129,1.219l0.241-1.063h-0.823l-1.489,7.094h0.937l0.78-3.689c0.383-1.773,1.106-2.668,2.355-2.668
		c0.198,0,0.397,0.029,0.624,0.1L184.162,46.221L184.162,46.221z"/>
	<path fill-rule="evenodd" clip-rule="evenodd" fill="#939598" d="M188.998,49.287h-4.172c0.341-1.52,1.434-2.455,2.54-2.455
		c1.022,0,1.675,0.709,1.675,1.916C189.041,48.918,189.026,49.102,188.998,49.287L188.998,49.287z M189.75,50.039
		c0.114-0.469,0.171-0.881,0.171-1.25c0-1.645-1.008-2.666-2.54-2.666c-1.079,0-1.986,0.453-2.682,1.375
		c-0.61,0.824-0.951,1.846-0.951,2.91c0,2,1.121,3.152,2.979,3.152c0.625,0,1.277-0.129,1.973-0.414l0.043-0.881
		c-0.639,0.326-1.264,0.482-1.901,0.482c-1.377,0-2.186-0.795-2.186-2.113c0-0.17,0.028-0.369,0.057-0.596H189.75L189.75,50.039z"/>
</g>
</svg>
