<svg width="12" height="16" viewBox="0 0 12 16" fill="none" xmlns="http://www.w3.org/2000/svg">
<path d="M6 15.5C5.825 15.5 5.675 15.45 5.55 15.35C5.425 15.25 5.33125 15.1187 5.26875 14.9562C5.03125 14.2562 4.73125 13.6 4.36875 12.9875C4.01875 12.375 3.525 11.6562 2.8875 10.8312C2.25 10.0062 1.73125 9.21875 1.33125 8.46875C0.94375 7.71875 0.75 6.8125 0.75 5.75C0.75 4.2875 1.25625 3.05 2.26875 2.0375C3.29375 1.0125 4.5375 0.5 6 0.5C7.4625 0.5 8.7 1.0125 9.7125 2.0375C10.7375 3.05 11.25 4.2875 11.25 5.75C11.25 6.8875 11.0312 7.8375 10.5938 8.6C10.1688 9.35 9.675 10.0938 9.1125 10.8312C8.4375 11.7312 7.925 12.4812 7.575 13.0812C7.2375 13.6687 6.95625 14.2937 6.73125 14.9562C6.66875 15.1312 6.56875 15.2688 6.43125 15.3688C6.30625 15.4563 6.1625 15.5 6 15.5ZM6 7.625C6.525 7.625 6.96875 7.44375 7.33125 7.08125C7.69375 6.71875 7.875 6.275 7.875 5.75C7.875 5.225 7.69375 4.78125 7.33125 4.41875C6.96875 4.05625 6.525 3.875 6 3.875C5.475 3.875 5.03125 4.05625 4.66875 4.41875C4.30625 4.78125 4.125 5.225 4.125 5.75C4.125 6.275 4.30625 6.71875 4.66875 7.08125C5.03125 7.44375 5.475 7.625 6 7.625Z" fill="#CE3C29"/>
</svg>
